<svg xmlns="http://www.w3.org/2000/svg" version="1.1" xmlns:xlink="http://www.w3.org/1999/xlink" xmlns:svgjs="http://svgjs.com/svgjs" width="1440" height="560" preserveAspectRatio="none" viewBox="0 0 1440 560"><g mask="url(&quot;#SvgjsMask1009&quot;)" fill="none"><rect width="1440" height="560" x="0" y="0" fill="url(#SvgjsLinearGradient1010)"></rect><path d="M-67.36 386.29L-67.36 386.29" stroke="rgba(19, 74, 101, 1)" stroke-width="1.5"></path><path d="M-67.36 386.29L-105.77 491.31" stroke="rgba(19, 74, 101, 1)" stroke-width="1.5"></path><path d="M-67.36 386.29L75.81 354.78" stroke="rgba(19, 74, 101, 1)" stroke-width="1.5"></path><path d="M-67.36 386.29L80.47 497.29" stroke="rgba(19, 74, 101, 1)" stroke-width="1.5"></path><path d="M-105.77 491.31L-105.77 491.31" stroke="rgba(19, 74, 101, 1)" stroke-width="1.5"></path><path d="M-105.77 491.31L-69.77 659.55" stroke="rgba(19, 74, 101, 1)" stroke-width="1.5"></path><path d="M-105.77 491.31L80.47 497.29" stroke="rgba(19, 74, 101, 1)" stroke-width="1.5"></path><path d="M-105.77 491.31L75.81 354.78" stroke="rgba(19, 74, 101, 1)" stroke-width="1.5"></path><path d="M-105.77 491.31L45.26 676.16" stroke="rgba(19, 74, 101, 1)" stroke-width="1.5"></path><path d="M-69.77 659.55L-69.77 659.55" stroke="rgba(19, 74, 101, 1)" stroke-width="1.5"></path><path d="M-69.77 659.55L45.26 676.16" stroke="rgba(19, 74, 101, 1)" stroke-width="1.5"></path><path d="M-69.77 659.55L80.47 497.29" stroke="rgba(19, 74, 101, 1)" stroke-width="1.5"></path><path d="M-69.77 659.55L-67.36 386.29" stroke="rgba(19, 74, 101, 1)" stroke-width="1.5"></path><path d="M-69.77 659.55L214.75 685.55" stroke="rgba(19, 74, 101, 1)" stroke-width="1.5"></path><path d="M75.81 354.78L75.81 354.78" stroke="rgba(19, 74, 101, 1)" stroke-width="1.5"></path><path d="M75.81 354.78L80.47 497.29" stroke="rgba(19, 74, 101, 1)" stroke-width="1.5"></path><path d="M75.81 354.78L253.27 402.4" stroke="rgba(19, 74, 101, 1)" stroke-width="1.5"></path><path d="M80.47 497.29L80.47 497.29" stroke="rgba(19, 74, 101, 1)" stroke-width="1.5"></path><path d="M80.47 497.29L45.26 676.16" stroke="rgba(19, 74, 101, 1)" stroke-width="1.5"></path><path d="M80.47 497.29L261.82 518.62" stroke="rgba(19, 74, 101, 1)" stroke-width="1.5"></path><path d="M45.26 676.16L45.26 676.16" stroke="rgba(19, 74, 101, 1)" stroke-width="1.5"></path><path d="M45.26 676.16L214.75 685.55" stroke="rgba(19, 74, 101, 1)" stroke-width="1.5"></path><path d="M45.26 676.16L261.82 518.62" stroke="rgba(19, 74, 101, 1)" stroke-width="1.5"></path><path d="M253.27 402.4L253.27 402.4" stroke="rgba(19, 74, 101, 1)" stroke-width="1.5"></path><path d="M253.27 402.4L359.36 382.59" stroke="rgba(19, 74, 101, 1)" stroke-width="1.5"></path><path d="M253.27 402.4L261.82 518.62" stroke="rgba(19, 74, 101, 1)" stroke-width="1.5"></path><path d="M261.82 518.62L261.82 518.62" stroke="rgba(19, 74, 101, 1)" stroke-width="1.5"></path><path d="M261.82 518.62L394.03 556.23" stroke="rgba(19, 74, 101, 1)" stroke-width="1.5"></path><path d="M261.82 518.62L359.36 382.59" stroke="rgba(19, 74, 101, 1)" stroke-width="1.5"></path><path d="M214.75 685.55L214.75 685.55" stroke="rgba(19, 74, 101, 1)" stroke-width="1.5"></path><path d="M214.75 685.55L355.89 676.9" stroke="rgba(19, 74, 101, 1)" stroke-width="1.5"></path><path d="M359.36 382.59L359.36 382.59" stroke="rgba(19, 74, 101, 1)" stroke-width="1.5"></path><path d="M359.36 382.59L394.03 556.23" stroke="rgba(19, 74, 101, 1)" stroke-width="1.5"></path><path d="M394.03 556.23L394.03 556.23" stroke="rgba(19, 74, 101, 1)" stroke-width="1.5"></path><path d="M394.03 556.23L355.89 676.9" stroke="rgba(19, 74, 101, 1)" stroke-width="1.5"></path><path d="M394.03 556.23L548.05 498.42" stroke="rgba(19, 74, 101, 1)" stroke-width="1.5"></path><path d="M355.89 676.9L355.89 676.9" stroke="rgba(19, 74, 101, 1)" stroke-width="1.5"></path><path d="M355.89 676.9L261.82 518.62" stroke="rgba(19, 74, 101, 1)" stroke-width="1.5"></path><path d="M555.7 361.3L555.7 361.3" stroke="rgba(19, 74, 101, 1)" stroke-width="1.5"></path><path d="M555.7 361.3L548.05 498.42" stroke="rgba(19, 74, 101, 1)" stroke-width="1.5"></path><path d="M555.7 361.3L648.43 243.59" stroke="rgba(19, 74, 101, 1)" stroke-width="1.5"></path><path d="M555.7 361.3L701.16 409.07" stroke="rgba(19, 74, 101, 1)" stroke-width="1.5"></path><path d="M555.7 361.3L644.34 493.32" stroke="rgba(19, 74, 101, 1)" stroke-width="1.5"></path><path d="M548.05 498.42L548.05 498.42" stroke="rgba(19, 74, 101, 1)" stroke-width="1.5"></path><path d="M548.05 498.42L644.34 493.32" stroke="rgba(19, 74, 101, 1)" stroke-width="1.5"></path><path d="M548.05 498.42L553.34 639.44" stroke="rgba(19, 74, 101, 1)" stroke-width="1.5"></path><path d="M553.34 639.44L553.34 639.44" stroke="rgba(19, 74, 101, 1)" stroke-width="1.5"></path><path d="M553.34 639.44L655.52 708.75" stroke="rgba(19, 74, 101, 1)" stroke-width="1.5"></path><path d="M553.34 639.44L644.34 493.32" stroke="rgba(19, 74, 101, 1)" stroke-width="1.5"></path><path d="M553.34 639.44L394.03 556.23" stroke="rgba(19, 74, 101, 1)" stroke-width="1.5"></path><path d="M553.34 639.44L355.89 676.9" stroke="rgba(19, 74, 101, 1)" stroke-width="1.5"></path><path d="M648.43 243.59L648.43 243.59" stroke="rgba(19, 74, 101, 1)" stroke-width="1.5"></path><path d="M648.43 243.59L701.16 409.07" stroke="rgba(19, 74, 101, 1)" stroke-width="1.5"></path><path d="M648.43 243.59L859.92 227.58" stroke="rgba(19, 74, 101, 1)" stroke-width="1.5"></path><path d="M701.16 409.07L701.16 409.07" stroke="rgba(19, 74, 101, 1)" stroke-width="1.5"></path><path d="M701.16 409.07L644.34 493.32" stroke="rgba(19, 74, 101, 1)" stroke-width="1.5"></path><path d="M701.16 409.07L828 499.46" stroke="rgba(19, 74, 101, 1)" stroke-width="1.5"></path><path d="M701.16 409.07L548.05 498.42" stroke="rgba(19, 74, 101, 1)" stroke-width="1.5"></path><path d="M644.34 493.32L644.34 493.32" stroke="rgba(19, 74, 101, 1)" stroke-width="1.5"></path><path d="M644.34 493.32L828 499.46" stroke="rgba(19, 74, 101, 1)" stroke-width="1.5"></path><path d="M644.34 493.32L655.52 708.75" stroke="rgba(19, 74, 101, 1)" stroke-width="1.5"></path><path d="M655.52 708.75L655.52 708.75" stroke="rgba(19, 74, 101, 1)" stroke-width="1.5"></path><path d="M655.52 708.75L851.13 685.46" stroke="rgba(19, 74, 101, 1)" stroke-width="1.5"></path><path d="M655.52 708.75L548.05 498.42" stroke="rgba(19, 74, 101, 1)" stroke-width="1.5"></path><path d="M855.19 73.7L855.19 73.7" stroke="rgba(19, 74, 101, 1)" stroke-width="1.5"></path><path d="M855.19 73.7L985.53 56.54" stroke="rgba(19, 74, 101, 1)" stroke-width="1.5"></path><path d="M855.19 73.7L859.92 227.58" stroke="rgba(19, 74, 101, 1)" stroke-width="1.5"></path><path d="M855.19 73.7L1002.82 191.76" stroke="rgba(19, 74, 101, 1)" stroke-width="1.5"></path><path d="M855.19 73.7L998.62 -68.07" stroke="rgba(19, 74, 101, 1)" stroke-width="1.5"></path><path d="M855.19 73.7L1100.37 106.64" stroke="rgba(19, 74, 101, 1)" stroke-width="1.5"></path><path d="M855.19 73.7L648.43 243.59" stroke="rgba(19, 74, 101, 1)" stroke-width="1.5"></path><path d="M859.92 227.58L859.92 227.58" stroke="rgba(19, 74, 101, 1)" stroke-width="1.5"></path><path d="M859.92 227.58L1002.82 191.76" stroke="rgba(19, 74, 101, 1)" stroke-width="1.5"></path><path d="M859.92 227.58L959.27 398.5" stroke="rgba(19, 74, 101, 1)" stroke-width="1.5"></path><path d="M828 499.46L828 499.46" stroke="rgba(19, 74, 101, 1)" stroke-width="1.5"></path><path d="M828 499.46L959.27 398.5" stroke="rgba(19, 74, 101, 1)" stroke-width="1.5"></path><path d="M851.13 685.46L851.13 685.46" stroke="rgba(19, 74, 101, 1)" stroke-width="1.5"></path><path d="M851.13 685.46L978.32 640.38" stroke="rgba(19, 74, 101, 1)" stroke-width="1.5"></path><path d="M851.13 685.46L828 499.46" stroke="rgba(19, 74, 101, 1)" stroke-width="1.5"></path><path d="M998.62 -68.07L998.62 -68.07" stroke="rgba(19, 74, 101, 1)" stroke-width="1.5"></path><path d="M998.62 -68.07L1112.62 -65.83" stroke="rgba(19, 74, 101, 1)" stroke-width="1.5"></path><path d="M998.62 -68.07L985.53 56.54" stroke="rgba(19, 74, 101, 1)" stroke-width="1.5"></path><path d="M998.62 -68.07L1100.37 106.64" stroke="rgba(19, 74, 101, 1)" stroke-width="1.5"></path><path d="M985.53 56.54L985.53 56.54" stroke="rgba(19, 74, 101, 1)" stroke-width="1.5"></path><path d="M985.53 56.54L1100.37 106.64" stroke="rgba(19, 74, 101, 1)" stroke-width="1.5"></path><path d="M1002.82 191.76L1002.82 191.76" stroke="rgba(19, 74, 101, 1)" stroke-width="1.5"></path><path d="M1002.82 191.76L1106.95 191.85" stroke="rgba(19, 74, 101, 1)" stroke-width="1.5"></path><path d="M1002.82 191.76L1100.37 106.64" stroke="rgba(19, 74, 101, 1)" stroke-width="1.5"></path><path d="M1002.82 191.76L985.53 56.54" stroke="rgba(19, 74, 101, 1)" stroke-width="1.5"></path><path d="M1002.82 191.76L959.27 398.5" stroke="rgba(19, 74, 101, 1)" stroke-width="1.5"></path><path d="M959.27 398.5L959.27 398.5" stroke="rgba(19, 74, 101, 1)" stroke-width="1.5"></path><path d="M959.27 398.5L1118.46 398.57" stroke="rgba(19, 74, 101, 1)" stroke-width="1.5"></path><path d="M978.32 640.38L978.32 640.38" stroke="rgba(19, 74, 101, 1)" stroke-width="1.5"></path><path d="M978.32 640.38L1088.3 673.04" stroke="rgba(19, 74, 101, 1)" stroke-width="1.5"></path><path d="M1112.62 -65.83L1112.62 -65.83" stroke="rgba(19, 74, 101, 1)" stroke-width="1.5"></path><path d="M1112.62 -65.83L1238.48 -107.12" stroke="rgba(19, 74, 101, 1)" stroke-width="1.5"></path><path d="M1112.62 -65.83L1100.37 106.64" stroke="rgba(19, 74, 101, 1)" stroke-width="1.5"></path><path d="M1112.62 -65.83L985.53 56.54" stroke="rgba(19, 74, 101, 1)" stroke-width="1.5"></path><path d="M1112.62 -65.83L1270.73 67.62" stroke="rgba(19, 74, 101, 1)" stroke-width="1.5"></path><path d="M1112.62 -65.83L1106.95 191.85" stroke="rgba(19, 74, 101, 1)" stroke-width="1.5"></path><path d="M1100.37 106.64L1100.37 106.64" stroke="rgba(19, 74, 101, 1)" stroke-width="1.5"></path><path d="M1100.37 106.64L1106.95 191.85" stroke="rgba(19, 74, 101, 1)" stroke-width="1.5"></path><path d="M1100.37 106.64L1270.73 67.62" stroke="rgba(19, 74, 101, 1)" stroke-width="1.5"></path><path d="M1106.95 191.85L1106.95 191.85" stroke="rgba(19, 74, 101, 1)" stroke-width="1.5"></path><path d="M1106.95 191.85L1268.7 254.37" stroke="rgba(19, 74, 101, 1)" stroke-width="1.5"></path><path d="M1106.95 191.85L985.53 56.54" stroke="rgba(19, 74, 101, 1)" stroke-width="1.5"></path><path d="M1118.46 398.57L1118.46 398.57" stroke="rgba(19, 74, 101, 1)" stroke-width="1.5"></path><path d="M1118.46 398.57L1255.62 387.06" stroke="rgba(19, 74, 101, 1)" stroke-width="1.5"></path><path d="M1118.46 398.57L1147.33 538.08" stroke="rgba(19, 74, 101, 1)" stroke-width="1.5"></path><path d="M1118.46 398.57L1106.95 191.85" stroke="rgba(19, 74, 101, 1)" stroke-width="1.5"></path><path d="M1118.46 398.57L1268.7 254.37" stroke="rgba(19, 74, 101, 1)" stroke-width="1.5"></path><path d="M1118.46 398.57L1253.64 561.22" stroke="rgba(19, 74, 101, 1)" stroke-width="1.5"></path><path d="M1147.33 538.08L1147.33 538.08" stroke="rgba(19, 74, 101, 1)" stroke-width="1.5"></path><path d="M1147.33 538.08L1253.64 561.22" stroke="rgba(19, 74, 101, 1)" stroke-width="1.5"></path><path d="M1147.33 538.08L1088.3 673.04" stroke="rgba(19, 74, 101, 1)" stroke-width="1.5"></path><path d="M1147.33 538.08L1272.11 639.6" stroke="rgba(19, 74, 101, 1)" stroke-width="1.5"></path><path d="M1088.3 673.04L1088.3 673.04" stroke="rgba(19, 74, 101, 1)" stroke-width="1.5"></path><path d="M1088.3 673.04L1272.11 639.6" stroke="rgba(19, 74, 101, 1)" stroke-width="1.5"></path><path d="M1238.48 -107.12L1238.48 -107.12" stroke="rgba(19, 74, 101, 1)" stroke-width="1.5"></path><path d="M1238.48 -107.12L1270.73 67.62" stroke="rgba(19, 74, 101, 1)" stroke-width="1.5"></path><path d="M1238.48 -107.12L1459.91 -109.12" stroke="rgba(19, 74, 101, 1)" stroke-width="1.5"></path><path d="M1238.48 -107.12L998.62 -68.07" stroke="rgba(19, 74, 101, 1)" stroke-width="1.5"></path><path d="M1238.48 -107.12L1100.37 106.64" stroke="rgba(19, 74, 101, 1)" stroke-width="1.5"></path><path d="M1238.48 -107.12L1438.11 60.42" stroke="rgba(19, 74, 101, 1)" stroke-width="1.5"></path><path d="M1270.73 67.62L1270.73 67.62" stroke="rgba(19, 74, 101, 1)" stroke-width="1.5"></path><path d="M1270.73 67.62L1438.11 60.42" stroke="rgba(19, 74, 101, 1)" stroke-width="1.5"></path><path d="M1268.7 254.37L1268.7 254.37" stroke="rgba(19, 74, 101, 1)" stroke-width="1.5"></path><path d="M1268.7 254.37L1255.62 387.06" stroke="rgba(19, 74, 101, 1)" stroke-width="1.5"></path><path d="M1268.7 254.37L1391.16 376.9" stroke="rgba(19, 74, 101, 1)" stroke-width="1.5"></path><path d="M1255.62 387.06L1255.62 387.06" stroke="rgba(19, 74, 101, 1)" stroke-width="1.5"></path><path d="M1255.62 387.06L1391.16 376.9" stroke="rgba(19, 74, 101, 1)" stroke-width="1.5"></path><path d="M1253.64 561.22L1253.64 561.22" stroke="rgba(19, 74, 101, 1)" stroke-width="1.5"></path><path d="M1253.64 561.22L1272.11 639.6" stroke="rgba(19, 74, 101, 1)" stroke-width="1.5"></path><path d="M1253.64 561.22L1255.62 387.06" stroke="rgba(19, 74, 101, 1)" stroke-width="1.5"></path><path d="M1253.64 561.22L1450.14 538.96" stroke="rgba(19, 74, 101, 1)" stroke-width="1.5"></path><path d="M1253.64 561.22L1088.3 673.04" stroke="rgba(19, 74, 101, 1)" stroke-width="1.5"></path><path d="M1253.64 561.22L1405.33 708.52" stroke="rgba(19, 74, 101, 1)" stroke-width="1.5"></path><path d="M1272.11 639.6L1272.11 639.6" stroke="rgba(19, 74, 101, 1)" stroke-width="1.5"></path><path d="M1272.11 639.6L1405.33 708.52" stroke="rgba(19, 74, 101, 1)" stroke-width="1.5"></path><path d="M1459.91 -109.12L1459.91 -109.12" stroke="rgba(19, 74, 101, 1)" stroke-width="1.5"></path><path d="M1459.91 -109.12L1577.96 -90.48" stroke="rgba(19, 74, 101, 1)" stroke-width="1.5"></path><path d="M1459.91 -109.12L1438.11 60.42" stroke="rgba(19, 74, 101, 1)" stroke-width="1.5"></path><path d="M1459.91 -109.12L1556.69 60.45" stroke="rgba(19, 74, 101, 1)" stroke-width="1.5"></path><path d="M1459.91 -109.12L1270.73 67.62" stroke="rgba(19, 74, 101, 1)" stroke-width="1.5"></path><path d="M1438.11 60.42L1438.11 60.42" stroke="rgba(19, 74, 101, 1)" stroke-width="1.5"></path><path d="M1438.11 60.42L1556.69 60.45" stroke="rgba(19, 74, 101, 1)" stroke-width="1.5"></path><path d="M1438.11 60.42L1440.43 187.76" stroke="rgba(19, 74, 101, 1)" stroke-width="1.5"></path><path d="M1438.11 60.42L1577.96 -90.48" stroke="rgba(19, 74, 101, 1)" stroke-width="1.5"></path><path d="M1438.11 60.42L1580.79 232" stroke="rgba(19, 74, 101, 1)" stroke-width="1.5"></path><path d="M1440.43 187.76L1440.43 187.76" stroke="rgba(19, 74, 101, 1)" stroke-width="1.5"></path><path d="M1440.43 187.76L1580.79 232" stroke="rgba(19, 74, 101, 1)" stroke-width="1.5"></path><path d="M1440.43 187.76L1556.69 60.45" stroke="rgba(19, 74, 101, 1)" stroke-width="1.5"></path><path d="M1391.16 376.9L1391.16 376.9" stroke="rgba(19, 74, 101, 1)" stroke-width="1.5"></path><path d="M1391.16 376.9L1559.89 381.16" stroke="rgba(19, 74, 101, 1)" stroke-width="1.5"></path><path d="M1450.14 538.96L1450.14 538.96" stroke="rgba(19, 74, 101, 1)" stroke-width="1.5"></path><path d="M1450.14 538.96L1591.69 530.15" stroke="rgba(19, 74, 101, 1)" stroke-width="1.5"></path><path d="M1450.14 538.96L1391.16 376.9" stroke="rgba(19, 74, 101, 1)" stroke-width="1.5"></path><path d="M1450.14 538.96L1405.33 708.52" stroke="rgba(19, 74, 101, 1)" stroke-width="1.5"></path><path d="M1450.14 538.96L1559.89 381.16" stroke="rgba(19, 74, 101, 1)" stroke-width="1.5"></path><path d="M1405.33 708.52L1405.33 708.52" stroke="rgba(19, 74, 101, 1)" stroke-width="1.5"></path><path d="M1405.33 708.52L1598.49 693.41" stroke="rgba(19, 74, 101, 1)" stroke-width="1.5"></path><path d="M1577.96 -90.48L1577.96 -90.48" stroke="rgba(19, 74, 101, 1)" stroke-width="1.5"></path><path d="M1577.96 -90.48L1556.69 60.45" stroke="rgba(19, 74, 101, 1)" stroke-width="1.5"></path><path d="M1577.96 -90.48L1440.43 187.76" stroke="rgba(19, 74, 101, 1)" stroke-width="1.5"></path><path d="M1577.96 -90.48L1580.79 232" stroke="rgba(19, 74, 101, 1)" stroke-width="1.5"></path><path d="M1577.96 -90.48L1238.48 -107.12" stroke="rgba(19, 74, 101, 1)" stroke-width="1.5"></path><path d="M1556.69 60.45L1556.69 60.45" stroke="rgba(19, 74, 101, 1)" stroke-width="1.5"></path><path d="M1556.69 60.45L1580.79 232" stroke="rgba(19, 74, 101, 1)" stroke-width="1.5"></path><path d="M1580.79 232L1580.79 232" stroke="rgba(19, 74, 101, 1)" stroke-width="1.5"></path><path d="M1580.79 232L1559.89 381.16" stroke="rgba(19, 74, 101, 1)" stroke-width="1.5"></path><path d="M1559.89 381.16L1559.89 381.16" stroke="rgba(19, 74, 101, 1)" stroke-width="1.5"></path><path d="M1559.89 381.16L1591.69 530.15" stroke="rgba(19, 74, 101, 1)" stroke-width="1.5"></path><path d="M1591.69 530.15L1591.69 530.15" stroke="rgba(19, 74, 101, 1)" stroke-width="1.5"></path><path d="M1598.49 693.41L1598.49 693.41" stroke="rgba(19, 74, 101, 1)" stroke-width="1.5"></path><path d="M1598.49 693.41L1591.69 530.15" stroke="rgba(19, 74, 101, 1)" stroke-width="1.5"></path><path d="M1598.49 693.41L1450.14 538.96" stroke="rgba(19, 74, 101, 1)" stroke-width="1.5"></path><path d="M1598.49 693.41L1559.89 381.16" stroke="rgba(19, 74, 101, 1)" stroke-width="1.5"></path><path d="M1598.49 693.41L1272.11 639.6" stroke="rgba(19, 74, 101, 1)" stroke-width="1.5"></path><path d="M1598.49 693.41L1253.64 561.22" stroke="rgba(19, 74, 101, 1)" stroke-width="1.5"></path><circle r="5" cx="-67.36" cy="386.29" fill="rgba(19, 74, 101, 1)"></circle><circle r="5" cx="-105.77" cy="491.31" fill="rgba(19, 74, 101, 1)"></circle><circle r="5" cx="-69.77" cy="659.55" fill="rgba(19, 74, 101, 1)"></circle><circle r="5" cx="75.81" cy="354.78" fill="rgba(19, 74, 101, 1)"></circle><circle r="5" cx="80.47" cy="497.29" fill="rgba(19, 74, 101, 1)"></circle><circle r="5" cx="45.26" cy="676.16" fill="rgba(19, 74, 101, 1)"></circle><circle r="5" cx="253.27" cy="402.4" fill="rgba(19, 74, 101, 1)"></circle><circle r="5" cx="261.82" cy="518.62" fill="rgba(19, 74, 101, 1)"></circle><circle r="5" cx="214.75" cy="685.55" fill="rgba(19, 74, 101, 1)"></circle><circle r="5" cx="359.36" cy="382.59" fill="rgba(19, 74, 101, 1)"></circle><circle r="5" cx="394.03" cy="556.23" fill="rgba(19, 74, 101, 1)"></circle><circle r="5" cx="355.89" cy="676.9" fill="rgba(19, 74, 101, 1)"></circle><circle r="5" cx="555.7" cy="361.3" fill="rgba(19, 74, 101, 1)"></circle><circle r="5" cx="548.05" cy="498.42" fill="rgba(19, 74, 101, 1)"></circle><circle r="5" cx="553.34" cy="639.44" fill="rgba(19, 74, 101, 1)"></circle><circle r="5" cx="648.43" cy="243.59" fill="rgba(19, 74, 101, 1)"></circle><circle r="5" cx="701.16" cy="409.07" fill="rgba(19, 74, 101, 1)"></circle><circle r="5" cx="644.34" cy="493.32" fill="rgba(19, 74, 101, 1)"></circle><circle r="5" cx="655.52" cy="708.75" fill="rgba(19, 74, 101, 1)"></circle><circle r="5" cx="855.19" cy="73.7" fill="rgba(19, 74, 101, 1)"></circle><circle r="5" cx="859.92" cy="227.58" fill="rgba(19, 74, 101, 1)"></circle><circle r="5" cx="828" cy="499.46" fill="rgba(19, 74, 101, 1)"></circle><circle r="5" cx="851.13" cy="685.46" fill="rgba(19, 74, 101, 1)"></circle><circle r="5" cx="998.62" cy="-68.07" fill="rgba(19, 74, 101, 1)"></circle><circle r="5" cx="985.53" cy="56.54" fill="rgba(19, 74, 101, 1)"></circle><circle r="5" cx="1002.82" cy="191.76" fill="rgba(19, 74, 101, 1)"></circle><circle r="5" cx="959.27" cy="398.5" fill="rgba(19, 74, 101, 1)"></circle><circle r="5" cx="978.32" cy="640.38" fill="rgba(19, 74, 101, 1)"></circle><circle r="5" cx="1112.62" cy="-65.83" fill="rgba(19, 74, 101, 1)"></circle><circle r="5" cx="1100.37" cy="106.64" fill="rgba(19, 74, 101, 1)"></circle><circle r="5" cx="1106.95" cy="191.85" fill="rgba(19, 74, 101, 1)"></circle><circle r="5" cx="1118.46" cy="398.57" fill="rgba(19, 74, 101, 1)"></circle><circle r="5" cx="1147.33" cy="538.08" fill="rgba(19, 74, 101, 1)"></circle><circle r="5" cx="1088.3" cy="673.04" fill="rgba(19, 74, 101, 1)"></circle><circle r="5" cx="1238.48" cy="-107.12" fill="rgba(19, 74, 101, 1)"></circle><circle r="5" cx="1270.73" cy="67.62" fill="rgba(19, 74, 101, 1)"></circle><circle r="5" cx="1268.7" cy="254.37" fill="rgba(19, 74, 101, 1)"></circle><circle r="5" cx="1255.62" cy="387.06" fill="rgba(19, 74, 101, 1)"></circle><circle r="5" cx="1253.64" cy="561.22" fill="rgba(19, 74, 101, 1)"></circle><circle r="5" cx="1272.11" cy="639.6" fill="rgba(19, 74, 101, 1)"></circle><circle r="5" cx="1459.91" cy="-109.12" fill="rgba(19, 74, 101, 1)"></circle><circle r="5" cx="1438.11" cy="60.42" fill="rgba(19, 74, 101, 1)"></circle><circle r="5" cx="1440.43" cy="187.76" fill="rgba(19, 74, 101, 1)"></circle><circle r="5" cx="1391.16" cy="376.9" fill="rgba(19, 74, 101, 1)"></circle><circle r="5" cx="1450.14" cy="538.96" fill="rgba(19, 74, 101, 1)"></circle><circle r="5" cx="1405.33" cy="708.52" fill="rgba(19, 74, 101, 1)"></circle><circle r="5" cx="1577.96" cy="-90.48" fill="rgba(19, 74, 101, 1)"></circle><circle r="5" cx="1556.69" cy="60.45" fill="rgba(19, 74, 101, 1)"></circle><circle r="5" cx="1580.79" cy="232" fill="rgba(19, 74, 101, 1)"></circle><circle r="5" cx="1559.89" cy="381.16" fill="rgba(19, 74, 101, 1)"></circle><circle r="5" cx="1591.69" cy="530.15" fill="rgba(19, 74, 101, 1)"></circle><circle r="5" cx="1598.49" cy="693.41" fill="rgba(19, 74, 101, 1)"></circle><path d="M349.39 508.73L349.39 508.73" stroke="hsl(58.19999999999999, 89.9%, 55.3%)" stroke-width="1.5"></path><path d="M349.39 508.73L210.13 533.93" stroke="hsl(58.19999999999999, 89.9%, 55.3%)" stroke-width="1.5"></path><path d="M349.39 508.73L374.05 677.31" stroke="hsl(58.19999999999999, 89.9%, 55.3%)" stroke-width="1.5"></path><path d="M349.39 508.73L547.37 529.17" stroke="hsl(58.19999999999999, 89.9%, 55.3%)" stroke-width="1.5"></path><path d="M349.39 508.73L201.96 692.74" stroke="hsl(58.19999999999999, 89.9%, 55.3%)" stroke-width="1.5"></path><path d="M541.38 704.5L541.38 704.5" stroke="hsl(58.19999999999999, 89.9%, 55.3%)" stroke-width="1.5"></path><path d="M541.38 704.5L374.05 677.31" stroke="hsl(58.19999999999999, 89.9%, 55.3%)" stroke-width="1.5"></path><path d="M541.38 704.5L547.37 529.17" stroke="hsl(58.19999999999999, 89.9%, 55.3%)" stroke-width="1.5"></path><path d="M541.38 704.5L678.23 560.62" stroke="hsl(58.19999999999999, 89.9%, 55.3%)" stroke-width="1.5"></path><path d="M852.48 399.64L852.48 399.64" stroke="hsl(58.19999999999999, 89.9%, 55.3%)" stroke-width="1.5"></path><path d="M852.48 399.64L957.76 345.26" stroke="hsl(58.19999999999999, 89.9%, 55.3%)" stroke-width="1.5"></path><path d="M852.48 399.64L826.8 530.97" stroke="hsl(58.19999999999999, 89.9%, 55.3%)" stroke-width="1.5"></path><path d="M852.48 399.64L971 501.21" stroke="hsl(58.19999999999999, 89.9%, 55.3%)" stroke-width="1.5"></path><path d="M852.48 399.64L679.9 401.77" stroke="hsl(58.19999999999999, 89.9%, 55.3%)" stroke-width="1.5"></path><path d="M852.48 399.64L978.01 248.33" stroke="hsl(58.19999999999999, 89.9%, 55.3%)" stroke-width="1.5"></path><path d="M826.8 530.97L826.8 530.97" stroke="hsl(58.19999999999999, 89.9%, 55.3%)" stroke-width="1.5"></path><path d="M826.8 530.97L845.6 638.21" stroke="hsl(58.19999999999999, 89.9%, 55.3%)" stroke-width="1.5"></path><path d="M826.8 530.97L971 501.21" stroke="hsl(58.19999999999999, 89.9%, 55.3%)" stroke-width="1.5"></path><path d="M845.6 638.21L845.6 638.21" stroke="hsl(58.19999999999999, 89.9%, 55.3%)" stroke-width="1.5"></path><path d="M845.6 638.21L949.83 691.55" stroke="hsl(58.19999999999999, 89.9%, 55.3%)" stroke-width="1.5"></path><path d="M845.6 638.21L678.23 560.62" stroke="hsl(58.19999999999999, 89.9%, 55.3%)" stroke-width="1.5"></path><path d="M845.6 638.21L971 501.21" stroke="hsl(58.19999999999999, 89.9%, 55.3%)" stroke-width="1.5"></path><path d="M845.6 638.21L852.48 399.64" stroke="hsl(58.19999999999999, 89.9%, 55.3%)" stroke-width="1.5"></path><path d="M957.76 345.26L957.76 345.26" stroke="hsl(58.19999999999999, 89.9%, 55.3%)" stroke-width="1.5"></path><path d="M957.76 345.26L978.01 248.33" stroke="hsl(58.19999999999999, 89.9%, 55.3%)" stroke-width="1.5"></path><path d="M957.76 345.26L971 501.21" stroke="hsl(58.19999999999999, 89.9%, 55.3%)" stroke-width="1.5"></path><path d="M957.76 345.26L1118.4 217.73" stroke="hsl(58.19999999999999, 89.9%, 55.3%)" stroke-width="1.5"></path><path d="M957.76 345.26L1155.07 408.17" stroke="hsl(58.19999999999999, 89.9%, 55.3%)" stroke-width="1.5"></path><path d="M1294.84 362.19L1294.84 362.19" stroke="hsl(58.19999999999999, 89.9%, 55.3%)" stroke-width="1.5"></path><path d="M1294.84 362.19L1253.73 222.57" stroke="hsl(58.19999999999999, 89.9%, 55.3%)" stroke-width="1.5"></path><path d="M1294.84 362.19L1295.26 508.11" stroke="hsl(58.19999999999999, 89.9%, 55.3%)" stroke-width="1.5"></path><path d="M1294.84 362.19L1155.07 408.17" stroke="hsl(58.19999999999999, 89.9%, 55.3%)" stroke-width="1.5"></path><path d="M1294.84 362.19L1450.26 226.1" stroke="hsl(58.19999999999999, 89.9%, 55.3%)" stroke-width="1.5"></path><path d="M1294.84 362.19L1144.35 507.25" stroke="hsl(58.19999999999999, 89.9%, 55.3%)" stroke-width="1.5"></path><path d="M1390.68 707.45L1390.68 707.45" stroke="hsl(58.19999999999999, 89.9%, 55.3%)" stroke-width="1.5"></path><path d="M1390.68 707.45L1261.06 678.77" stroke="hsl(58.19999999999999, 89.9%, 55.3%)" stroke-width="1.5"></path><path d="M1390.68 707.45L1576.2 709.13" stroke="hsl(58.19999999999999, 89.9%, 55.3%)" stroke-width="1.5"></path><path d="M1390.68 707.45L1441.53 515.8" stroke="hsl(58.19999999999999, 89.9%, 55.3%)" stroke-width="1.5"></path><path d="M1390.68 707.45L1295.26 508.11" stroke="hsl(58.19999999999999, 89.9%, 55.3%)" stroke-width="1.5"></path><path d="M1390.68 707.45L1573.93 553.98" stroke="hsl(58.19999999999999, 89.9%, 55.3%)" stroke-width="1.5"></path><path d="M-92.93 499.13L-92.93 499.13" stroke="hsl(58.19999999999999, 89.9%, 55.3%)" stroke-width="1.5"></path><path d="M-92.93 499.13L-97.03 704.75" stroke="hsl(58.19999999999999, 89.9%, 55.3%)" stroke-width="1.5"></path><path d="M-92.93 499.13L100.38 666.73" stroke="hsl(58.19999999999999, 89.9%, 55.3%)" stroke-width="1.5"></path><path d="M-92.93 499.13L210.13 533.93" stroke="hsl(58.19999999999999, 89.9%, 55.3%)" stroke-width="1.5"></path><path d="M-92.93 499.13L201.96 692.74" stroke="hsl(58.19999999999999, 89.9%, 55.3%)" stroke-width="1.5"></path><path d="M-97.03 704.75L-97.03 704.75" stroke="hsl(58.19999999999999, 89.9%, 55.3%)" stroke-width="1.5"></path><path d="M-97.03 704.75L100.38 666.73" stroke="hsl(58.19999999999999, 89.9%, 55.3%)" stroke-width="1.5"></path><path d="M-97.03 704.75L201.96 692.74" stroke="hsl(58.19999999999999, 89.9%, 55.3%)" stroke-width="1.5"></path><path d="M-97.03 704.75L210.13 533.93" stroke="hsl(58.19999999999999, 89.9%, 55.3%)" stroke-width="1.5"></path><path d="M100.38 666.73L100.38 666.73" stroke="hsl(58.19999999999999, 89.9%, 55.3%)" stroke-width="1.5"></path><path d="M100.38 666.73L201.96 692.74" stroke="hsl(58.19999999999999, 89.9%, 55.3%)" stroke-width="1.5"></path><path d="M100.38 666.73L210.13 533.93" stroke="hsl(58.19999999999999, 89.9%, 55.3%)" stroke-width="1.5"></path><path d="M100.38 666.73L374.05 677.31" stroke="hsl(58.19999999999999, 89.9%, 55.3%)" stroke-width="1.5"></path><path d="M210.13 533.93L210.13 533.93" stroke="hsl(58.19999999999999, 89.9%, 55.3%)" stroke-width="1.5"></path><path d="M210.13 533.93L201.96 692.74" stroke="hsl(58.19999999999999, 89.9%, 55.3%)" stroke-width="1.5"></path><path d="M210.13 533.93L374.05 677.31" stroke="hsl(58.19999999999999, 89.9%, 55.3%)" stroke-width="1.5"></path><path d="M210.13 533.93L547.37 529.17" stroke="hsl(58.19999999999999, 89.9%, 55.3%)" stroke-width="1.5"></path><path d="M201.96 692.74L201.96 692.74" stroke="hsl(58.19999999999999, 89.9%, 55.3%)" stroke-width="1.5"></path><path d="M201.96 692.74L374.05 677.31" stroke="hsl(58.19999999999999, 89.9%, 55.3%)" stroke-width="1.5"></path><path d="M374.05 677.31L374.05 677.31" stroke="hsl(58.19999999999999, 89.9%, 55.3%)" stroke-width="1.5"></path><path d="M547.37 529.17L547.37 529.17" stroke="hsl(58.19999999999999, 89.9%, 55.3%)" stroke-width="1.5"></path><path d="M547.37 529.17L678.23 560.62" stroke="hsl(58.19999999999999, 89.9%, 55.3%)" stroke-width="1.5"></path><path d="M547.37 529.17L679.9 401.77" stroke="hsl(58.19999999999999, 89.9%, 55.3%)" stroke-width="1.5"></path><path d="M679.9 401.77L679.9 401.77" stroke="hsl(58.19999999999999, 89.9%, 55.3%)" stroke-width="1.5"></path><path d="M679.9 401.77L678.23 560.62" stroke="hsl(58.19999999999999, 89.9%, 55.3%)" stroke-width="1.5"></path><path d="M679.9 401.77L826.8 530.97" stroke="hsl(58.19999999999999, 89.9%, 55.3%)" stroke-width="1.5"></path><path d="M679.9 401.77L957.76 345.26" stroke="hsl(58.19999999999999, 89.9%, 55.3%)" stroke-width="1.5"></path><path d="M678.23 560.62L678.23 560.62" stroke="hsl(58.19999999999999, 89.9%, 55.3%)" stroke-width="1.5"></path><path d="M678.23 560.62L826.8 530.97" stroke="hsl(58.19999999999999, 89.9%, 55.3%)" stroke-width="1.5"></path><path d="M978.01 248.33L978.01 248.33" stroke="hsl(58.19999999999999, 89.9%, 55.3%)" stroke-width="1.5"></path><path d="M978.01 248.33L1118.4 217.73" stroke="hsl(58.19999999999999, 89.9%, 55.3%)" stroke-width="1.5"></path><path d="M971 501.21L971 501.21" stroke="hsl(58.19999999999999, 89.9%, 55.3%)" stroke-width="1.5"></path><path d="M971 501.21L1144.35 507.25" stroke="hsl(58.19999999999999, 89.9%, 55.3%)" stroke-width="1.5"></path><path d="M949.83 691.55L949.83 691.55" stroke="hsl(58.19999999999999, 89.9%, 55.3%)" stroke-width="1.5"></path><path d="M949.83 691.55L1091.14 645.93" stroke="hsl(58.19999999999999, 89.9%, 55.3%)" stroke-width="1.5"></path><path d="M949.83 691.55L971 501.21" stroke="hsl(58.19999999999999, 89.9%, 55.3%)" stroke-width="1.5"></path><path d="M949.83 691.55L826.8 530.97" stroke="hsl(58.19999999999999, 89.9%, 55.3%)" stroke-width="1.5"></path><path d="M949.83 691.55L1144.35 507.25" stroke="hsl(58.19999999999999, 89.9%, 55.3%)" stroke-width="1.5"></path><path d="M949.83 691.55L678.23 560.62" stroke="hsl(58.19999999999999, 89.9%, 55.3%)" stroke-width="1.5"></path><path d="M1118.4 217.73L1118.4 217.73" stroke="hsl(58.19999999999999, 89.9%, 55.3%)" stroke-width="1.5"></path><path d="M1118.4 217.73L1253.73 222.57" stroke="hsl(58.19999999999999, 89.9%, 55.3%)" stroke-width="1.5"></path><path d="M1118.4 217.73L1155.07 408.17" stroke="hsl(58.19999999999999, 89.9%, 55.3%)" stroke-width="1.5"></path><path d="M1155.07 408.17L1155.07 408.17" stroke="hsl(58.19999999999999, 89.9%, 55.3%)" stroke-width="1.5"></path><path d="M1155.07 408.17L1144.35 507.25" stroke="hsl(58.19999999999999, 89.9%, 55.3%)" stroke-width="1.5"></path><path d="M1155.07 408.17L1295.26 508.11" stroke="hsl(58.19999999999999, 89.9%, 55.3%)" stroke-width="1.5"></path><path d="M1144.35 507.25L1144.35 507.25" stroke="hsl(58.19999999999999, 89.9%, 55.3%)" stroke-width="1.5"></path><path d="M1144.35 507.25L1091.14 645.93" stroke="hsl(58.19999999999999, 89.9%, 55.3%)" stroke-width="1.5"></path><path d="M1144.35 507.25L1295.26 508.11" stroke="hsl(58.19999999999999, 89.9%, 55.3%)" stroke-width="1.5"></path><path d="M1091.14 645.93L1091.14 645.93" stroke="hsl(58.19999999999999, 89.9%, 55.3%)" stroke-width="1.5"></path><path d="M1290.37 -81.44L1290.37 -81.44" stroke="hsl(58.19999999999999, 89.9%, 55.3%)" stroke-width="1.5"></path><path d="M1290.37 -81.44L1300.04 88.85" stroke="hsl(58.19999999999999, 89.9%, 55.3%)" stroke-width="1.5"></path><path d="M1290.37 -81.44L1422.73 39.63" stroke="hsl(58.19999999999999, 89.9%, 55.3%)" stroke-width="1.5"></path><path d="M1290.37 -81.44L1545.56 -46.3" stroke="hsl(58.19999999999999, 89.9%, 55.3%)" stroke-width="1.5"></path><path d="M1290.37 -81.44L1253.73 222.57" stroke="hsl(58.19999999999999, 89.9%, 55.3%)" stroke-width="1.5"></path><path d="M1300.04 88.85L1300.04 88.85" stroke="hsl(58.19999999999999, 89.9%, 55.3%)" stroke-width="1.5"></path><path d="M1300.04 88.85L1422.73 39.63" stroke="hsl(58.19999999999999, 89.9%, 55.3%)" stroke-width="1.5"></path><path d="M1300.04 88.85L1253.73 222.57" stroke="hsl(58.19999999999999, 89.9%, 55.3%)" stroke-width="1.5"></path><path d="M1300.04 88.85L1450.26 226.1" stroke="hsl(58.19999999999999, 89.9%, 55.3%)" stroke-width="1.5"></path><path d="M1300.04 88.85L1118.4 217.73" stroke="hsl(58.19999999999999, 89.9%, 55.3%)" stroke-width="1.5"></path><path d="M1253.73 222.57L1253.73 222.57" stroke="hsl(58.19999999999999, 89.9%, 55.3%)" stroke-width="1.5"></path><path d="M1253.73 222.57L1450.26 226.1" stroke="hsl(58.19999999999999, 89.9%, 55.3%)" stroke-width="1.5"></path><path d="M1295.26 508.11L1295.26 508.11" stroke="hsl(58.19999999999999, 89.9%, 55.3%)" stroke-width="1.5"></path><path d="M1295.26 508.11L1441.53 515.8" stroke="hsl(58.19999999999999, 89.9%, 55.3%)" stroke-width="1.5"></path><path d="M1261.06 678.77L1261.06 678.77" stroke="hsl(58.19999999999999, 89.9%, 55.3%)" stroke-width="1.5"></path><path d="M1422.73 39.63L1422.73 39.63" stroke="hsl(58.19999999999999, 89.9%, 55.3%)" stroke-width="1.5"></path><path d="M1422.73 39.63L1545.29 91.52" stroke="hsl(58.19999999999999, 89.9%, 55.3%)" stroke-width="1.5"></path><path d="M1422.73 39.63L1545.56 -46.3" stroke="hsl(58.19999999999999, 89.9%, 55.3%)" stroke-width="1.5"></path><path d="M1450.26 226.1L1450.26 226.1" stroke="hsl(58.19999999999999, 89.9%, 55.3%)" stroke-width="1.5"></path><path d="M1450.26 226.1L1560.11 232.7" stroke="hsl(58.19999999999999, 89.9%, 55.3%)" stroke-width="1.5"></path><path d="M1450.26 226.1L1543.23 353.34" stroke="hsl(58.19999999999999, 89.9%, 55.3%)" stroke-width="1.5"></path><path d="M1450.26 226.1L1545.29 91.52" stroke="hsl(58.19999999999999, 89.9%, 55.3%)" stroke-width="1.5"></path><path d="M1450.26 226.1L1422.73 39.63" stroke="hsl(58.19999999999999, 89.9%, 55.3%)" stroke-width="1.5"></path><path d="M1441.53 515.8L1441.53 515.8" stroke="hsl(58.19999999999999, 89.9%, 55.3%)" stroke-width="1.5"></path><path d="M1441.53 515.8L1573.93 553.98" stroke="hsl(58.19999999999999, 89.9%, 55.3%)" stroke-width="1.5"></path><path d="M1545.56 -46.3L1545.56 -46.3" stroke="hsl(58.19999999999999, 89.9%, 55.3%)" stroke-width="1.5"></path><path d="M1545.56 -46.3L1545.29 91.52" stroke="hsl(58.19999999999999, 89.9%, 55.3%)" stroke-width="1.5"></path><path d="M1545.56 -46.3L1560.11 232.7" stroke="hsl(58.19999999999999, 89.9%, 55.3%)" stroke-width="1.5"></path><path d="M1545.56 -46.3L1300.04 88.85" stroke="hsl(58.19999999999999, 89.9%, 55.3%)" stroke-width="1.5"></path><path d="M1545.29 91.52L1545.29 91.52" stroke="hsl(58.19999999999999, 89.9%, 55.3%)" stroke-width="1.5"></path><path d="M1545.29 91.52L1560.11 232.7" stroke="hsl(58.19999999999999, 89.9%, 55.3%)" stroke-width="1.5"></path><path d="M1560.11 232.7L1560.11 232.7" stroke="hsl(58.19999999999999, 89.9%, 55.3%)" stroke-width="1.5"></path><path d="M1560.11 232.7L1543.23 353.34" stroke="hsl(58.19999999999999, 89.9%, 55.3%)" stroke-width="1.5"></path><path d="M1560.11 232.7L1422.73 39.63" stroke="hsl(58.19999999999999, 89.9%, 55.3%)" stroke-width="1.5"></path><path d="M1543.23 353.34L1543.23 353.34" stroke="hsl(58.19999999999999, 89.9%, 55.3%)" stroke-width="1.5"></path><path d="M1543.23 353.34L1441.53 515.8" stroke="hsl(58.19999999999999, 89.9%, 55.3%)" stroke-width="1.5"></path><path d="M1543.23 353.34L1573.93 553.98" stroke="hsl(58.19999999999999, 89.9%, 55.3%)" stroke-width="1.5"></path><path d="M1543.23 353.34L1294.84 362.19" stroke="hsl(58.19999999999999, 89.9%, 55.3%)" stroke-width="1.5"></path><path d="M1573.93 553.98L1573.93 553.98" stroke="hsl(58.19999999999999, 89.9%, 55.3%)" stroke-width="1.5"></path><path d="M1573.93 553.98L1576.2 709.13" stroke="hsl(58.19999999999999, 89.9%, 55.3%)" stroke-width="1.5"></path><path d="M1576.2 709.13L1576.2 709.13" stroke="hsl(58.19999999999999, 89.9%, 55.3%)" stroke-width="1.5"></path><circle r="25" cx="349.39" cy="508.73" fill="url(#SvgjsRadialGradient1011)"></circle><circle r="25" cx="541.38" cy="704.5" fill="url(#SvgjsRadialGradient1011)"></circle><circle r="25" cx="852.48" cy="399.64" fill="url(#SvgjsRadialGradient1011)"></circle><circle r="25" cx="826.8" cy="530.97" fill="url(#SvgjsRadialGradient1011)"></circle><circle r="25" cx="845.6" cy="638.21" fill="url(#SvgjsRadialGradient1011)"></circle><circle r="25" cx="957.76" cy="345.26" fill="url(#SvgjsRadialGradient1011)"></circle><circle r="25" cx="1294.84" cy="362.19" fill="url(#SvgjsRadialGradient1011)"></circle><circle r="25" cx="1390.68" cy="707.45" fill="url(#SvgjsRadialGradient1011)"></circle><circle r="5" cx="-92.93" cy="499.13" fill="#e7e485"></circle><circle r="5" cx="-97.03" cy="704.75" fill="#e7e485"></circle><circle r="5" cx="100.38" cy="666.73" fill="#e7e485"></circle><circle r="5" cx="210.13" cy="533.93" fill="#e7e485"></circle><circle r="5" cx="201.96" cy="692.74" fill="#e7e485"></circle><circle r="5" cx="374.05" cy="677.31" fill="#e7e485"></circle><circle r="5" cx="547.37" cy="529.17" fill="#e7e485"></circle><circle r="5" cx="679.9" cy="401.77" fill="#e7e485"></circle><circle r="5" cx="678.23" cy="560.62" fill="#e7e485"></circle><circle r="5" cx="978.01" cy="248.33" fill="#e7e485"></circle><circle r="5" cx="971" cy="501.21" fill="#e7e485"></circle><circle r="5" cx="949.83" cy="691.55" fill="#e7e485"></circle><circle r="5" cx="1118.4" cy="217.73" fill="#e7e485"></circle><circle r="5" cx="1155.07" cy="408.17" fill="#e7e485"></circle><circle r="5" cx="1144.35" cy="507.25" fill="#e7e485"></circle><circle r="5" cx="1091.14" cy="645.93" fill="#e7e485"></circle><circle r="5" cx="1290.37" cy="-81.44" fill="#e7e485"></circle><circle r="5" cx="1300.04" cy="88.85" fill="#e7e485"></circle><circle r="5" cx="1253.73" cy="222.57" fill="#e7e485"></circle><circle r="5" cx="1295.26" cy="508.11" fill="#e7e485"></circle><circle r="5" cx="1261.06" cy="678.77" fill="#e7e485"></circle><circle r="5" cx="1422.73" cy="39.63" fill="#e7e485"></circle><circle r="5" cx="1450.26" cy="226.1" fill="#e7e485"></circle><circle r="5" cx="1441.53" cy="515.8" fill="#e7e485"></circle><circle r="5" cx="1545.56" cy="-46.3" fill="#e7e485"></circle><circle r="5" cx="1545.29" cy="91.52" fill="#e7e485"></circle><circle r="5" cx="1560.11" cy="232.7" fill="#e7e485"></circle><circle r="5" cx="1543.23" cy="353.34" fill="#e7e485"></circle><circle r="5" cx="1573.93" cy="553.98" fill="#e7e485"></circle><circle r="5" cx="1576.2" cy="709.13" fill="#e7e485"></circle></g><defs><mask id="SvgjsMask1009"><rect width="1440" height="560" fill="#ffffff"></rect></mask><linearGradient x1="0%" y1="50%" x2="100%" y2="50%" gradientUnits="userSpaceOnUse" id="SvgjsLinearGradient1010"><stop stop-color="#0e2a47" offset="0"></stop><stop stop-color="rgba(0, 158, 99, 1)" offset="0.68"></stop><stop stop-color="rgba(0, 158, 61, 1)" offset="0.94"></stop><stop stop-color="rgba(0, 158, 99, 1)" offset="1"></stop></linearGradient><radialGradient id="SvgjsRadialGradient1011"><stop stop-color="#ffffff" offset="0.1"></stop><stop stop-color="rgba(206, 200, 11, 1)" offset="0.2"></stop><stop stop-color="rgba(206, 200, 11, 0)" offset="1"></stop></radialGradient></defs></svg>